<?xml version="1.0" encoding="iso-8859-1"?>
<!-- Generator: Adobe Illustrator 19.0.0, SVG Export Plug-In . SVG Version: 6.00 Build 0)  -->
<svg version="1.1" id="Layer_1" xmlns="http://www.w3.org/2000/svg" xmlns:xlink="http://www.w3.org/1999/xlink" x="0px" y="0px"
	 viewBox="0 0 490.587 490.587" style="enable-background:new 0 0 490.587 490.587; fill:#E5F5FD; width:auto; height:auto;" xml:space="preserve">
<g>
	<g>
		<g>
			<path d="M479.92,79.907H163.653c-2.88,0-5.547,1.173-7.573,3.2L3.12,237.773c-4.16,4.16-4.16,10.88,0,15.04L156.187,407.48
				c2.027,2.027,4.693,3.2,7.573,3.2h316.16c5.867,0,10.667-4.8,10.667-10.667V90.573C490.587,84.707,485.787,79.907,479.92,79.907z
				 M469.253,389.24H168.027l-142.4-144l142.507-144h301.12V389.24z"/>
			<path d="M248.453,183.373l61.76,61.76l-61.76,61.76c-4.16,4.267-4.053,10.987-0.107,15.147c4.16,4.16,10.88,4.16,15.04,0
				l61.76-61.76l61.76,61.76c4.267,4.053,10.987,3.947,15.04-0.213c3.947-4.16,3.947-10.667,0-14.827l-61.653-61.76l61.76-61.76
				c4.053-4.267,3.947-10.987-0.213-15.04c-4.16-3.947-10.667-3.947-14.827,0l-61.76,61.653l-61.76-61.76
				c-4.053-4.267-10.88-4.373-15.04-0.213s-4.373,10.88-0.213,15.04C248.347,183.267,248.453,183.373,248.453,183.373z"/>
		</g>
	</g>
</g>
<g>
</g>
<g>
</g>
<g>
</g>
<g>
</g>
<g>
</g>
<g>
</g>
<g>
</g>
<g>
</g>
<g>
</g>
<g>
</g>
<g>
</g>
<g>
</g>
<g>
</g>
<g>
</g>
<g>
</g>
</svg>
